<?xml version="1.0" encoding="iso-8859-1"?>
<!-- Generator: Adobe Illustrator 19.0.0, SVG Export Plug-In . SVG Version: 6.00 Build 0)  -->
<svg version="1.1" id="Layer_1" xmlns="http://www.w3.org/2000/svg" xmlns:xlink="http://www.w3.org/1999/xlink" x="0px" y="0px"
	 viewBox="0 0 512.001 512.001" style="enable-background:new 0 0 512.001 512.001;" xml:space="preserve">
<g>
	<g>
		<path d="M510.492,281.24c-0.011-0.016-0.016-0.035-0.028-0.051l-92.526-128.732c-1.38-20.627-17.878-40.632-37.972-45.407
			l-99.455-23.634V57.192c0-6.273-2.372-12-6.261-16.34c3.89-4.34,6.261-10.068,6.261-16.34c0-13.516-10.995-24.511-24.511-24.511
			c-13.516,0-24.511,10.995-24.511,24.511c0,6.273,2.372,12,6.261,16.34c-3.89,4.34-6.261,10.068-6.261,16.34v26.224l-99.454,23.633
			c-20.094,4.775-36.592,24.78-37.972,45.407L1.536,281.19c-0.012,0.016-0.017,0.035-0.028,0.051C0.561,282.573,0,284.199,0,285.958
			c0,28.531,23.213,51.745,51.745,51.745h100.766c28.531,0,51.745-23.213,51.745-51.745c0-1.759-0.561-3.385-1.508-4.718
			c-0.011-0.016-0.016-0.035-0.028-0.051l-84.658-117.784h88.917c4.512,0,8.17-3.658,8.17-8.17s-3.658-8.17-8.17-8.17h-95.455
			c3.342-11.301,13.116-21.463,24.288-24.117l95.678-22.735v242.937h-2.677c-0.027,0-0.053,0-0.081,0h-10.86
			c-4.512,0-8.17,3.658-8.17,8.17c0,4.439,3.543,8.044,7.955,8.159l-22.279,71.291c-16.929,2.57-30.482,15.562-33.876,32.209
			h-36.226c-13.516,0-24.511,10.995-24.511,24.511c0,13.516,10.995,24.511,24.511,24.511h261.447
			c13.516,0,24.511-10.995,24.511-24.511c0-13.516-10.995-24.511-24.511-24.511h-36.224c-3.393-16.648-16.947-29.638-33.876-32.209
			l-22.279-71.291c4.411-0.115,7.955-3.72,7.955-8.159c0-4.512-3.658-8.17-8.17-8.17h-10.864c-0.024,0-0.048,0-0.072,0h-2.682
			V100.212l95.678,22.735c11.173,2.655,20.946,12.816,24.288,24.117h-95.455c-4.512,0-8.17,3.658-8.17,8.17s3.658,8.17,8.17,8.17
			h88.917L309.281,281.19c-0.012,0.016-0.017,0.035-0.028,0.051c-0.946,1.333-1.507,2.959-1.507,4.717
			c0,28.531,23.213,51.745,51.745,51.745h100.766c28.531,0,51.745-23.213,51.745-51.745C512,284.199,511.439,282.573,510.492,281.24
			z M152.511,321.362H51.745c-16.711,0-30.755-11.638-34.452-27.234h169.671C183.265,309.725,169.221,321.362,152.511,321.362z
			 M180.151,277.788H24.104l78.023-108.554L180.151,277.788z M256,16.341c4.506,0,8.17,3.665,8.17,8.17
			c0,4.506-3.665,8.17-8.17,8.17c-4.506,0-8.17-3.665-8.17-8.17C247.83,20.006,251.494,16.341,256,16.341z M247.83,57.192
			c0-4.506,3.665-8.17,8.17-8.17c4.506,0,8.17,3.665,8.17,8.17v285.957h-16.34V57.192z M333.579,462.979H201.532
			c-4.512,0-8.17,3.658-8.17,8.17s3.658,8.17,8.17,8.17h185.191c4.506,0,8.17,3.665,8.17,8.17c0,4.506-3.665,8.17-8.17,8.17H125.277
			c-4.506,0-8.17-3.665-8.17-8.17c0-4.506,3.665-8.17,8.17-8.17h43.574c4.512,0,8.17-3.658,8.17-8.17
			c0-13.509,10.985-24.5,24.491-24.511c0.048,0,108.927,0,108.927,0C321.13,446.646,330.208,453.474,333.579,462.979z
			 M299.355,430.298h-86.71l22.128-70.808h42.454L299.355,430.298z M409.872,169.234l78.023,108.554H331.849L409.872,169.234z
			 M460.255,321.362H359.489c-16.711,0-30.755-11.638-34.452-27.234h169.671C491.01,309.725,476.966,321.362,460.255,321.362z"/>
	</g>
</g>
<g>
</g>
<g>
</g>
<g>
</g>
<g>
</g>
<g>
</g>
<g>
</g>
<g>
</g>
<g>
</g>
<g>
</g>
<g>
</g>
<g>
</g>
<g>
</g>
<g>
</g>
<g>
</g>
<g>
</g>
</svg>
